HIERARCHY
ROOT Hips
{
	OFFSET 0.000000 0.000000 0.000000 
	CHANNELS 6 Xposition Yposition Zposition Yrotation Zrotation Xrotation 
	JOINT Lumbar
	{
		OFFSET 0.000000 0.000000 0.000000 
		CHANNELS 3 Zrotation Xrotation Yrotation
		JOINT Neck
		{
			OFFSET 0.000000 0.445665 0.000000 
			CHANNELS 3 Zrotation Xrotation Yrotation
			End Site
			{
				OFFSET 0.000000 0.227535 0.000000 
			}
		}
		JOINT RightShoulder
		{
			OFFSET 0.019635 0.377685 0.194865 
			CHANNELS 3 Zrotation Xrotation Yrotation
			JOINT RightElbow
			{
				OFFSET 0.000000 -0.243375 0.000000 
				CHANNELS 2 Zrotation Yrotation
				JOINT RightWrist
				{
					OFFSET 0.000000 -0.264825 0.000000 
					CHANNELS 2 Zrotation Xrotation
					End Site
					{
						OFFSET 0.006600 -0.176220 0.000990 
					}
				}
			}
		}
		JOINT LeftShoulder
		{
			OFFSET 0.019635 0.377685 -0.194865 
			CHANNELS 3 Zrotation Xrotation Yrotation
			JOINT LeftElbow
			{
				OFFSET 0.000000 -0.243375 0.000000 
				CHANNELS 2 Zrotation Yrotation
				JOINT LeftWrist
				{
					OFFSET 0.000000 -0.264825 0.000000 
					CHANNELS 2 Zrotation Xrotation
					End Site
					{
						OFFSET 0.006600 -0.176220 -0.000990 
					}
				}
			}
		}
	}
	JOINT RightHip
	{
		OFFSET 0.052140 -0.069960 0.075570 
		CHANNELS 3 Zrotation Xrotation Yrotation
		JOINT RightKnee
		{
			OFFSET 0.000000 -0.402270 0.000000 
			CHANNELS 1 Zrotation
			JOINT RightAnkle
			{
				OFFSET 0.000000 -0.404085 0.000000 
				CHANNELS 3 Zrotation Xrotation Yrotation
				End Site
				{
					OFFSET 0.204105 -0.089430 0.008415 
				}
			}
		}
	}
	JOINT LeftHip
	{
		OFFSET 0.052140 -0.069960 -0.075570 
		CHANNELS 3 Zrotation Xrotation Yrotation
		JOINT LeftKnee
		{
			OFFSET 0.000000 -0.402270 0.000000 
			CHANNELS 1 Zrotation
			JOINT LeftAnkle
			{
				OFFSET 0.000000 -0.404085 0.000000 
				CHANNELS 3 Zrotation Xrotation Yrotation
				End Site
				{
					OFFSET 0.204105 -0.089430 -0.008415 
				}
			}
		}
	}
}
MOTION
Frames: 34
Frame Time: 0.02
0.11659 0.97091 0.60071 193.91647 0 -8.35683 1.4914 8.85199 7.72586 -16.85292 -4.29428 0.90045 1.42584 -11.63969 15.53866 75.89017 83.23785 -52.50286 -3.84168 -19.89105 107.42956 60.95259 27.94442 -70.16228 -48.1715 2.74709 0.76437 -2.7632 -4.48319 -20.9463 -11.43422 -2.44204 -12.3478 -1.52349 2.44991 15.00734 -7.05593 7.15856 7.34373 11.73156
0.11647 0.97093 0.60157 194.09796 0 -8.37764 1.33095 8.89927 7.63274 -16.33484 -3.72229 1.34189 0.77409 -12.40809 15.51516 76.40286 82.56055 -52.41774 -3.7923 -21.94397 106.81395 61.35907 28.12346 -68.72554 -48.41358 2.62194 0.70392 -2.77852 -4.56673 -20.94874 -11.51656 -2.42818 -12.37381 -1.48085 2.43044 14.77492 -7.15849 7.15658 7.36214 11.84988
0.11634 0.97084 0.60244 194.3212 0 -8.37231 1.19332 8.88821 7.54895 -16.16423 -3.23754 1.70458 0.47368 -13.11795 15.58896 76.84371 81.88217 -52.36506 -3.74379 -23.49913 106.06574 62.19726 29.18708 -67.44935 -48.35388 2.50712 0.61161 -2.80728 -4.63261 -20.93057 -11.54462 -2.42234 -12.45613 -1.44297 2.38 14.46032 -7.24826 7.15764 7.38885 12.01622
0.1162 0.9708 0.6033 194.53145 0 -8.37983 1.04795 8.90468 7.45776 -15.84602 -2.71979 2.09393 0.02998 -13.84476 15.62268 77.30877 81.2309 -52.29722 -3.69697 -25.21257 105.38607 62.7883 29.82894 -66.14571 -48.44536 2.39178 0.52876 -2.8269 -4.70416 -20.91764 -11.59891 -2.41213 -12.5167 -1.40572 2.34549 14.18376 -7.34004 7.1569 7.41052 12.15347
0.11613 0.97075 0.60418 194.7169 0 -8.38354 0.88904 8.91694 7.37882 -15.48149 -2.167 2.52562 -0.48847 -14.6206 15.63769 77.81616 80.46208 -52.22798 -3.64095 -27.16373 104.6433 63.53333 30.59926 -64.65512 -48.51709 2.25926 0.46713 -2.85938 -4.78572 -20.92209 -11.64768 -2.4048 -12.56067 -1.35675 2.30328 13.90486 -7.44764 7.15767 7.43734 12.32028
0.11591 0.9707 0.60501 194.96324 0 -8.38883 0.76433 8.92402 7.27749 -15.29654 -1.71055 2.84953 -0.76697 -15.27663 15.71347 78.21625 79.93772 -52.17087 -3.60426 -28.5205 104.01065 64.08379 31.29713 -63.58907 -48.54408 2.1647 0.35451 -2.86855 -4.84274 -20.88641 -11.69461 -2.3935 -12.65187 -1.33302 2.26967 13.61129 -7.51972 7.15618 7.45554 12.43772
0.11528 0.97069 0.60568 195.37354 0 -8.4053 0.73275 8.9319 7.10586 -15.52871 -1.49963 2.88779 -0.45175 -15.62344 15.95582 78.33093 80.11517 -52.13565 -3.62323 -28.35596 103.72236 63.9894 31.54937 -63.66863 -48.50939 2.17373 0.09927 -2.80628 -4.82981 -20.73318 -11.75025 -2.36846 -12.87062 -1.38129 2.26777 13.29498 -7.49198 7.14686 7.44712 12.40252
0.11451 0.97069 0.60628 195.84243 0 -8.42413 0.73442 8.93644 6.91259 -15.92898 -1.38357 2.82101 0.0908 -15.84931 16.25251 78.34013 80.53498 -52.11254 -3.66126 -27.61788 103.55213 63.69331 31.69655 -64.16696 -48.43663 2.2203 -0.20447 -2.72074 -4.79388 -20.54233 -11.80569 -2.33931 -13.13312 -1.45418 2.2755 12.96717 -7.42978 7.13534 7.42993 12.31692
0.11381 0.97069 0.60691 196.28068 0 -8.44155 0.71843 8.94193 6.73336 -16.24856 -1.2245 2.80651 0.51889 -16.12464 16.50964 78.40117 80.82734 -52.0868 -3.68898 -27.15034 103.32685 63.49964 31.90441 -64.46473 -48.38323 2.24877 -0.47989 -2.64828 -4.77272 -20.37626 -11.86075 -2.31258 -13.36863 -1.51352 2.27854 12.6459 -7.38649 7.12536 7.41727 12.2575
0.11307 0.97068 0.60756 196.73782 0 -8.4595 0.71386 8.94773 6.5367 -16.59807 -1.06772 2.77027 1.00556 -16.4211 16.83172 78.44408 81.19191 -52.05031 -3.7236 -26.62212 103.10229 63.27475 32.0904 -64.81146 -48.31102 2.28199 -0.78307 -2.56571 -4.73291 -20.17703 -11.91588 -2.28377 -13.63611 -1.58294 2.28182 12.3158 -7.32907 7.11316 7.40251 12.18598
0.11239 0.97068 0.60815 197.16841 0 -8.47724 0.69321 8.95293 6.37108 -16.92101 -0.92781 2.75524 1.42044 -16.64581 17.0316 78.49968 81.46453 -52.0383 -3.74846 -26.09158 102.90613 63.06127 32.28404 -65.15353 -48.27318 2.31413 -1.03933 -2.49849 -4.72648 -20.03826 -11.97156 -2.25823 -13.84665 -1.63721 2.28731 12.00296 -7.29302 7.1051 7.39003 12.12698
0.11193 0.9707 0.60861 197.51583 0 -8.49385 0.61912 8.9568 6.29641 -17.12479 -0.80939 2.82562 1.57313 -16.7 16.86823 78.62422 81.41684 -52.09412 -3.74087 -25.69212 102.76109 62.93181 32.52922 -65.37872 -48.33518 2.33363 -1.15587 -2.47932 -4.8197 -20.07525 -12.02883 -2.24258 -13.88918 -1.6432 2.29658 11.73644 -7.32497 7.10838 7.38506 12.1157
0.11154 0.97073 0.60901 197.83334 0 -8.51026 0.52773 8.96051 6.25371 -17.29512 -0.70457 2.92108 1.64545 -16.68691 16.58195 78.76412 81.26966 -52.17343 -3.72294 -25.3134 102.6409 62.81823 32.78027 -65.58362 -48.43519 2.35072 -1.22301 -2.47635 -4.94691 -20.17452 -12.08688 -2.23036 -13.87276 -1.63316 2.30786 11.48895 -7.37956 7.11603 7.38282 12.11843
0.11112 0.97075 0.60943 198.16157 0 -8.52692 0.44478 8.965 6.19636 -17.48217 -0.59442 3.00475 1.75837 -16.70608 16.35953 78.89185 81.1726 -52.2397 -3.71026 -24.92958 102.50923 62.69334 33.0209 -65.79875 -48.52218 2.36922 -1.3115 -2.46593 -5.05759 -20.24568 -12.14494 -2.21665 -13.88295 -1.63071 2.3184 11.2358 -7.42348 7.12206 7.37993 12.11395
0.11069 0.97077 0.60986 198.50455 0 -8.54311 0.36068 8.9666 6.13869 -17.66917 -0.48424 3.08659 1.86259 -16.71347 16.10484 79.03725 81.06299 -52.3163 -3.6959 -24.50671 102.38293 62.57897 33.29108 -66.02684 -48.59011 2.38793 -1.40642 -2.45507 -5.17256 -20.31485 -12.20173 -2.20253 -13.895 -1.62783 2.32865 10.96931 -7.46783 7.1264 7.37428 12.11113
0.11029 0.97079 0.61026 198.80828 0 -8.56005 0.27428 8.97394 6.08966 -17.84577 -0.37583 3.1793 1.96241 -16.73154 15.88801 79.15152 80.95311 -52.37693 -3.68238 -24.1782 102.24914 62.449 33.50247 -66.21452 -48.7068 2.40485 -1.47547 -2.44925 -5.28629 -20.40329 -12.26099 -2.19012 -13.8892 -1.62174 2.3397 10.73564 -7.51709 7.13541 7.37509 12.10903
0.10995 0.97081 0.61062 199.01593 0 -8.58044 0.18674 8.99959 6.05587 -18.00307 -0.27065 3.29903 2.0718 -16.79159 15.80056 79.1709 80.86275 -52.38677 -3.67329 -24.10529 102.09426 62.27264 33.5482 -66.31948 -48.95412 2.41988 -1.48572 -2.45357 -5.39417 -20.53128 -12.32999 -2.18168 -13.84284 -1.61026 2.35397 10.58509 -7.57505 7.15544 7.39355 12.1041
0.10964 0.97083 0.61096 199.18377 0 -8.60137 0.0969 9.03057 6.02992 -18.14985 -0.16593 3.42889 2.17796 -16.86614 15.75603 79.15982 80.77529 -52.38003 -3.66541 -24.13033 101.92948 62.08082 33.53533 -66.37759 -49.24859 2.43252 -1.47116 -2.46245 -5.49863 -20.67644 -12.40092 -2.17484 -13.78136 -1.59593 2.36871 10.46761 -7.6374 7.18019 7.4184 12.09999
0.10931 0.97085 0.61131 199.36643 0 -8.62111 0.00759 9.05753 6.00104 -18.29987 -0.0595 3.55247 2.28311 -16.93718 15.69513 79.16675 80.68772 -52.38122 -3.65718 -24.11243 101.7648 61.89679 33.55093 -66.43971 -49.51808 2.44448 -1.46749 -2.46929 -5.60087 -20.81284 -12.46882 -2.16724 -13.73028 -1.58329 2.38218 10.33677 -7.69722 7.20328 7.43999 12.09656
0.10898 0.97088 0.61166 199.56239 0 -8.64465 -0.07919 9.09123 5.97068 -18.45573 0.0398 3.68355 2.39616 -16.99248 15.61718 79.15698 80.59098 -52.3808 -3.64776 -24.08508 101.61912 61.71029 33.55891 -66.57553 -49.80329 2.46392 -1.46425 -2.4767 -5.72021 -20.95529 -12.54556 -2.15994 -13.6623 -1.56908 2.40003 10.19905 -7.75932 7.22437 7.46299 12.08885
0.10867 0.97087 0.61199 199.72095 0 -8.66062 -0.17271 9.11217 5.94474 -18.59687 0.15435 3.8016 2.49288 -17.08531 15.58599 79.17403 80.51623 -52.38044 -3.64126 -24.10444 101.43179 61.52467 33.56881 -66.54545 -50.06719 2.46715 -1.45423 -2.4836 -5.80269 -21.08861 -12.60469 -2.15231 -13.62668 -1.55687 2.40904 10.08389 -7.81838 7.25081 7.48474 12.09043
0.10835 0.97078 0.61231 199.79136 0 -8.65379 -0.27477 9.09679 5.92972 -18.7041 0.30864 3.87691 2.54701 -17.2756 15.67919 79.27775 80.49271 -52.3755 -3.64213 -24.19716 101.12739 61.35036 33.59831 -66.07979 -50.25461 2.42688 -1.4371 -2.48952 -5.78433 -21.19062 -12.61184 -2.14376 -13.68403 -1.55757 2.39193 10.01754 -7.85967 7.28995 7.49987 12.11447
0.10805 0.97066 0.61261 199.82467 0 -8.63969 -0.3855 9.06842 5.91853 -18.79643 0.4788 3.93939 2.58522 -17.50417 15.81779 79.40878 80.49278 -52.37239 -3.64599 -24.34026 100.78285 61.17746 33.63194 -65.44616 -50.42011 2.37019 -1.41315 -2.49443 -5.72897 -21.28291 -12.6018 -2.13475 -13.77452 -1.55911 2.36624 9.97359 -7.89924 7.3344 7.51378 12.14835
0.10776 0.97055 0.61291 199.87155 0 -8.63 -0.498 9.04579 5.90509 -18.89277 0.64342 4.01054 2.62951 -17.7171 15.93211 79.52348 80.48899 -52.37453 -3.64884 -24.47992 100.45854 60.99921 33.66345 -64.88305 -50.59919 2.32067 -1.389 -2.49864 -5.69013 -21.38063 -12.60146 -2.12569 -13.85045 -1.55611 2.34548 9.92292 -7.94486 7.37709 7.52931 12.17962
0.10738 0.97043 0.61324 199.93081 0 -8.61546 -0.58524 9.02378 5.89435 -18.99963 0.80104 4.07034 2.67708 -17.92246 16.06212 79.65243 80.45856 -52.35179 -3.65042 -24.53727 100.1225 60.83612 33.69318 -64.34545 -50.7638 2.27257 -1.37811 -2.50777 -5.65183 -21.47476 -12.59297 -2.11773 -13.92464 -1.57101 2.32024 9.85914 -7.96821 7.41747 7.54069 12.20302
0.10721 0.97033 0.6135 199.95614 0 -8.60954 -0.72868 8.99767 5.87844 -19.08211 0.9769 4.15029 2.71588 -18.15329 16.17111 79.76016 80.48631 -52.37983 -3.65513 -24.78126 99.80528 60.64723 33.7293 -63.7122 -50.95382 2.21732 -1.33803 -2.50654 -5.60444 -21.57374 -12.59764 -2.1074 -14.00936 -1.54829 2.30247 9.82715 -8.03774 7.46353 7.56018 12.24522
0.10757 0.97026 0.61361 199.89625 0 -8.62714 -1.01269 8.96054 5.84991 -19.09257 1.19972 4.29119 2.719 -18.43735 16.19908 79.78887 80.69446 -52.56249 -3.66959 -25.48849 99.51931 60.34242 33.77345 -62.8865 -51.20912 2.1494 -1.22165 -2.47537 -5.53456 -21.68922 -12.64051 -2.09007 -14.12536 -1.42614 2.30594 9.88051 -8.23318 7.52664 7.60373 12.3358
0.10816 0.97022 0.61366 199.80425 0 -8.65405 -1.35578 8.92034 5.81532 -19.08019 1.43985 4.45206 2.71661 -18.74642 16.2065 79.79781 80.95605 -52.79373 -3.68679 -26.38811 99.2608 60.02027 33.82521 -61.9669 -51.492 2.07449 -1.07579 -2.43413 -5.45833 -21.80975 -12.69764 -2.07044 -14.24899 -1.26503 2.3175 9.96424 -8.47572 7.59473 7.65516 12.44488
0.10867 0.97017 0.61373 199.72697 0 -8.67809 -1.67937 8.88322 5.78204 -19.08437 1.67227 4.60271 2.727 -19.0499 16.2307 79.82522 81.17582 -52.99279 -3.70148 -27.22607 99.008 59.73477 33.88012 -61.06786 -51.76923 2.00054 -0.9418 -2.39849 -5.38887 -21.92733 -12.74979 -2.05221 -14.36241 -1.11898 2.32633 10.032 -8.69773 7.65875 7.70213 12.54659
0.10903 0.9701 0.61382 199.64599 0 -8.69619 -1.97018 8.83803 5.75585 -19.06376 1.90628 4.759 2.69395 -19.33311 16.22447 79.81434 81.46848 -53.23364 -3.72146 -27.95969 98.67124 59.3265 33.90953 -60.24787 -52.01837 1.93458 -0.81388 -2.35834 -5.3005 -22.04707 -12.79501 -2.0325 -14.50533 -0.98501 2.33086 10.11009 -8.91515 7.73062 7.75295 12.64544
0.10979 0.97008 0.61386 199.56789 0 -8.72889 -2.34575 8.80973 5.71229 -19.08728 2.13875 4.90692 2.74967 -19.66051 16.27695 79.87713 81.62415 -53.4001 -3.73122 -28.95232 98.52363 59.17151 33.99094 -59.25371 -52.3307 1.85153 -0.66655 -2.32538 -5.25203 -22.16397 -12.85825 -2.01532 -14.58832 -0.81549 2.3464 10.17309 -9.15438 7.78722 7.79743 12.75303
0.11152 0.97021 0.61385 199.48594 0 -8.80054 -2.91978 8.82369 5.63231 -19.25731 2.38041 5.03953 3.05673 -20.13254 16.48908 80.15669 81.36756 -53.33973 -3.71043 -30.64059 98.83148 59.70522 34.2392 -57.71169 -52.82935 1.71444 -0.47145 -2.31324 -5.30228 -22.26942 -12.96805 -2.00592 -14.50271 -0.56652 2.39039 10.19135 -9.43389 7.80099 7.82444 12.8925
0.11365 0.97039 0.6138 199.41177 0 -8.88648 -3.58148 8.85591 5.53362 -19.46867 2.61618 5.16055 3.45215 -20.64204 16.76202 80.50916 80.97524 -53.20467 -3.67955 -32.57668 99.34105 60.49682 34.53501 -56.01525 -53.38738 1.56206 -0.2579 -2.30901 -5.39555 -22.37253 -13.09537 -1.99915 -14.35663 -0.28111 2.44529 10.19266 -9.7357 7.79927 7.84449 13.03755
0.11565 0.97054 0.61376 199.34722 0 -8.96529 -4.21621 8.88305 5.43629 -19.64916 2.84344 5.27888 3.80446 -21.11614 17.012 80.82276 80.65842 -53.10995 -3.65432 -34.38204 99.79681 61.1806 34.79232 -54.44934 -53.906 1.42237 -0.05401 -2.30211 -5.47784 -22.47806 -13.2148 -1.99097 -14.23885 -0.00674 2.49511 10.19842 -10.03231 7.80406 7.86641 13.17221
